<svg xmlns="http://www.w3.org/2000/svg" viewBox="0 0 192 192">
  <defs>
    <linearGradient id="bg" x1="0%" y1="0%" x2="100%" y2="100%">
      <stop offset="0%" style="stop-color:#0F172A"/>
      <stop offset="100%" style="stop-color:#1E293B"/>
    </linearGradient>
  </defs>
  <rect width="192" height="192" rx="28.799999999999997" fill="url(#bg)"/>
  <g transform="translate(96.0, 96.0)">
    <g transform="scale(4.8) translate(-12, -12)">
      <!-- Brain outline -->
      <path d="M12 2C8.5 2 5.5 4.5 5 8c-2 .5-3 2.5-3 4.5 0 2.5 2 4.5 4.5 4.5h11c2.5 0 4.5-2 4.5-4.5 0-2-1-4-3-4.5-.5-3.5-3.5-6-7-6z" 
            fill="none" stroke="#22C55E" stroke-width="1.5"/>
      <!-- Brain details -->
      <path d="M9 8c0-1.5 1.5-3 3-3s3 1.5 3 3" fill="none" stroke="#22C55E" stroke-width="1" opacity="0.8"/>
      <path d="M8 12h8" fill="none" stroke="#22C55E" stroke-width="1" opacity="0.6"/>
      <path d="M9 15c1 1 2 1 3 0s2-1 3 0" fill="none" stroke="#22C55E" stroke-width="1" opacity="0.6"/>
      <!-- Neural connections -->
      <circle cx="9" cy="9" r="1" fill="#22C55E"/>
      <circle cx="15" cy="9" r="1" fill="#22C55E"/>
      <circle cx="12" cy="12" r="1.5" fill="#22C55E"/>
      <circle cx="9" cy="14" r="0.8" fill="#22C55E" opacity="0.7"/>
      <circle cx="15" cy="14" r="0.8" fill="#22C55E" opacity="0.7"/>
    </g>
  </g>
</svg>